PathFileType	4	(X/Y/Z)	Patient4_TMGait_0pt7_01_left_26.trc.trc
DataRate	CameraRate	NumFrames	NumMarkers	Units	OrigDataRate	OrigDataStartFrame	OrigNumFrames
86.419753086420	86.419753086420	6	33	mm	86.419753086420	1	       141
Frame#	Time	Sacral			L.Shoulder			Chest			R.Shoulder			Neck			R.ASIS			L.ASIS			R.Thigh.Superior			R.Thigh.Lateral			R.Thigh.Inferior			R.Patella			L.Thigh.Superior			L.Thigh.Lateral			L.Thigh.Inferior			L.Patella			L.Shank.Superior			L.Shank.Lateral			L.Shank.Inferior			R.Shank.Superior			R.Shank.Lateral			R.Shank.Inferior			R.Heel			R.Midfoot.Superior			R.Midfoot.Lateral			R.Toe			L.Heel			L.Midfoot.Lateral			L.Midfoot.Superior			L.Toe			L.Elbow			L.Wrist			R.Elbow			R.Wrist			
		X1	Y1	Z1	X2	Y2	Z2	X3	Y3	Z3	X4	Y4	Z4	X5	Y5	Z5	X6	Y6	Z6	X7	Y7	Z7	X8	Y8	Z8	X9	Y9	Z9	X10	Y10	Z10	X11	Y11	Z11	X12	Y12	Z12	X13	Y13	Z13	X14	Y14	Z14	X15	Y15	Z15	X16	Y16	Z16	X17	Y17	Z17	X18	Y18	Z18	X19	Y19	Z19	X20	Y20	Z20	X21	Y21	Z21	X22	Y22	Z22	X23	Y23	Z23	X24	Y24	Z24	X25	Y25	Z25	X26	Y26	Z26	X27	Y27	Z27	X28	Y28	Z28	X29	Y29	Z29	X30	Y30	Z30	X31	Y31	Z31	X32	Y32	Z32	X33	Y33	Z33	

1	29.950000000000	823.246672927361	1015.646376483965	533.529825214591	1031.056418320307	1430.431872867993	339.511814111630	1138.172823058149	1347.231158644585	493.025298813455	1076.464275378776	1432.134345266569	671.330602375426	1057.362093564487	1489.141904274524	492.264433754295	1051.133344917869	941.921774918229	641.043559234343	1025.223502821318	960.570804389782	367.143656122927	1088.816559390877	742.872034466212	619.637154733249	1002.378073711732	638.007158056588	677.577825898400	1079.135340128235	584.024689114674	598.954976819217	1077.800232742504	498.677154209347	604.704388702501	1115.629502021096	800.779988302818	392.831553521773	1083.535802914527	673.182164497559	309.339874492793	1195.897280961034	619.784657350255	365.337072949300	1218.142350781560	530.269126387396	355.410179671595	1155.861307950856	457.270636046534	350.859928942258	1014.923356770086	406.753730446387	306.445167045049	1012.167763019705	276.604676669330	361.678146569766	1055.163306294035	409.443924318208	612.110284516492	988.182850539792	303.070524872692	673.148535808932	1038.681443786587	210.370408718125	611.005821707889	914.145652601810	42.548703814270	576.316798316080	1084.075164809653	97.704480066326	615.042847928426	996.726151312290	36.316605007839	652.072451993837	1204.932891904468	46.860184604151	643.918419113175	827.210791638776	203.600266398038	403.890349263744	884.392817507978	156.544845180791	323.945354375776	989.871913318407	169.497119933229	342.482245851632	1070.987153648232	58.651150175808	316.504252878199	889.215685890898	1107.853266721300	239.121528797144	1009.950251335349	874.858766141269	238.951200136957	1098.956850392235	1091.091182095182	811.297173453504	1265.475057843530	896.781327136229	755.369107071000	
2	29.961571428571	821.877865588570	1016.350740510557	535.112737830924	1029.427563221386	1430.603905926502	340.418436482969	1137.363091234273	1347.332415907411	493.276465602014	1076.861820114336	1432.481224210217	671.777491667251	1056.614021285389	1489.367307118071	493.075605336803	1050.076069880067	941.927877721629	641.512117231672	1023.200723423508	960.944599317936	367.907126689792	1085.067971789123	742.169621415131	619.349749888524	998.250458047993	638.052166316668	678.252862076340	1073.860741351524	583.303803525899	599.195787104723	1071.641556564513	498.192270162798	605.081377379758	1114.522178863481	803.670820444694	393.585294894663	1084.745199180007	675.685312807032	309.864218439889	1197.599955755298	624.069135966082	366.046619750837	1221.678442264268	535.790357320596	355.817539618174	1162.837229091957	461.290316408117	350.876453630018	1025.418024596313	403.391766719192	306.847584198555	1030.636990537083	273.361103819919	360.944443239925	1048.668206905775	409.343406261074	612.495882454522	981.159591153643	303.105914585152	673.483736155621	1030.897311501763	210.189100404263	611.089896962340	905.658914516532	42.601148165146	576.377661221965	1075.573680929907	97.511694178615	614.998914734669	988.201194851822	36.321863351604	652.116055846571	1196.398382280959	46.459058004510	643.968353794918	851.503202587697	189.532145414539	403.751951445181	910.361000229417	146.953859773224	322.920276024380	1014.544124608186	165.876474342105	340.977932573812	1101.477305579004	60.891909643415	313.215957950142	884.206500894780	1109.122614064367	241.754725826569	990.256965668353	870.153543452088	239.785775039723	1111.170288120103	1093.563323721000	811.002751859391	1286.186163696708	911.010890202221	748.782275721905	
3	29.973142857143	820.542100613767	1017.043713556756	536.657612272996	1027.821992787320	1430.770128880479	341.295381152035	1136.568836525594	1347.417590819561	493.499859951725	1077.278169402452	1432.811953284517	672.199448803102	1055.882072086023	1489.582378198705	493.854102635202	1049.037493045893	941.931544146861	641.968184942518	1021.224642746804	961.299125723000	368.634172141345	1081.377225421292	741.474311320463	619.044920744910	994.163923007603	638.093751110603	678.911214042862	1068.634064788499	582.581374144790	599.431857122757	1065.537419341833	497.712237960329	605.452073418328	1113.376578612521	806.401206979189	394.337601718756	1085.846259049822	678.048529850395	310.411638225194	1199.096628665317	628.103519623086	366.844992121563	1224.959161473875	541.093853857298	356.325700829746	1169.567148017959	465.160228612707	350.979047792703	1035.848580548488	399.936498538227	307.133160589775	1048.945706261442	270.135091889408	360.190748148209	1042.219359048299	409.231074719321	612.869945139702	974.206415096631	303.136459671426	673.809725046923	1023.202032130016	210.009200955189	611.170966061698	897.270849545417	42.654528622482	576.442445374959	1067.174958181307	97.327518122699	614.960803392374	979.778149213986	36.327521850897	652.158137454715	1187.966989626921	46.068164178908	644.020210252144	875.728987041640	175.587332926179	403.350861202548	936.311600334225	137.502156957109	321.746151703782	1039.090420816025	162.349172581499	339.481828817880	1131.778152045109	63.282595611934	310.130909886670	879.267621866876	1110.388125592046	244.326441736220	970.978171327199	865.733515771727	240.624108830824	1123.132482047419	1096.052179451625	810.668452049665	1306.433951028452	925.257665888259	742.217741502694	
4	29.984714285714	819.274567251308	1017.708634133054	538.120392022953	1026.257886494762	1430.923426584797	342.110131054101	1135.801109607517	1347.469699559895	493.661791875514	1077.725431331797	1433.108019437405	672.564979588800	1055.176293035839	1489.773298852442	494.566501339425	1048.038508040271	941.928282343445	642.395099446418	1019.341930515967	961.607804481472	369.282531339034	1077.773732133080	740.782880619656	618.714852445573	990.116295250798	638.130110099464	679.534679862281	1063.452743604208	581.851647987774	599.659883913664	1059.483773353750	497.237204365613	605.810916378429	1112.137278723152	808.785631667162	395.082922609825	1086.694649420253	680.108588974567	310.980141329810	1200.152769254289	631.610643447914	367.794692702319	1227.702832318108	545.952656938765	357.018252484708	1175.799311542453	468.735436490285	351.227928006985	1046.172488316987	396.286079261684	307.202068066894	1067.001673201417	266.966525513040	359.401882110052	1035.798999691472	409.095359209945	613.218723669429	967.320444525054	303.161214418822	674.118651217739	1015.604488533970	209.832734407262	611.246516992044	888.993254030147	42.710634778218	576.514249217841	1058.894879056991	97.159997964389	614.934073588099	971.471053388703	36.334649717296	652.197944751700	1179.653939200676	45.696324999419	644.076661715025	899.964169622514	161.884015841435	402.484846712453	962.352109495977	128.341218342978	320.321603556246	1063.482390136931	159.050120716372	338.012477107055	1161.799555448574	66.064372955291	307.447752058073	874.447998395530	1111.658548889174	246.767313869524	952.423206610482	861.866648986854	241.465128470725	1134.669796003904	1098.591037431675	810.217419564542	1325.826778770972	939.669121685681	735.634993243007	
5	29.996285714286	818.106200212298	1018.330028895526	539.462683693592	1024.750327072124	1431.058616447751	342.835629979472	1135.068594399393	1347.475464586612	493.733699206956	1078.210517034278	1433.353476560996	672.846645535671	1054.504165960245	1489.927821175056	495.185933997307	1047.097524469206	941.914138926788	642.778858255311	1017.591689985489	961.846643083163	369.816890792000	1074.272905399809	740.088063926249	618.362425419435	986.090162922176	638.159378191675	680.106934662427	1058.300866764533	581.109871015206	599.879420926050	1053.461959382972	496.766367278077	606.154306815684	1110.753934954413	810.666668596144	395.815870778935	1087.158257949587	681.724683938670	311.555337120289	1200.569811437219	634.356393165388	368.931491489848	1229.674168041964	550.177502681560	357.956411183594	1181.324726514110	471.901518993281	351.667392259415	1056.364815837407	392.368566574344	306.974229957543	1084.738287274967	263.907345859385	358.574463084604	1029.379997733061	408.931353795820	613.532516500889	960.478958461715	303.180852275192	674.403880923063	1008.091051960407	209.662032982023	611.314455573053	880.813541999084	42.770007763657	576.593445148415	1050.723564855380	97.015003316013	614.922422529012	963.268141582629	36.343769467478	652.234135628196	1171.448795279028	45.351177728224	644.140242690915	924.297234005567	148.540414141961	401.007416188108	988.596835220234	119.619748360127	318.586807686038	1087.711897082861	156.118464889467	336.600908242688	1191.480486969896	69.474956255699	305.354765732806	869.788528676749	1112.942837164810	249.016373645950	934.820357919932	858.752916709842	242.305829647415	1145.660188364036	1101.204203622044	809.572680276861	1344.061034583661	954.387331884833	728.987295747784	
6	30.007857142857	817.062908061178	1018.893038137044	540.652341259160	1023.312403034776	1431.172265121646	343.451260690797	1134.377674603397	1347.426844520320	493.694755765001	1078.732066925526	1433.536135724663	673.022831669858	1053.870377136132	1490.035976748906	495.693510345632	1046.230574129011	941.884987773451	643.105059011150	1016.004985206421	961.995613501313	370.210953214755	1070.880210950203	739.380275476449	618.001491670197	982.061484726975	638.180068928563	680.614051973425	1053.159055148039	580.353981374586	600.091830590351	1047.450043927962	496.298471318329	606.479751407520	1109.190128807214	811.927012835402	396.528965188560	1087.129750759368	682.789780385817	312.109203064833	1200.206372048230	636.169553730124	370.255155743110	1230.705830963017	553.628714392733	359.167227094152	1185.988956609854	474.580160359066	352.315971077848	1066.395343504610	388.157388329214	306.403309913014	1102.084973744949	261.021437845659	357.718950491354	1022.937395175235	408.740883497529	613.805795461053	953.652016244673	303.197824908142	674.660246819490	1000.637217496522	209.499898621366	611.373132587785	872.706471043655	42.832449049604	576.677663408659	1042.637221723553	96.895664664044	614.927111787907	955.143999866780	36.354905454797	652.265151608996	1163.327226037756	45.038550870265	644.212497177880	948.770352286668	135.688147843805	398.857350214301	1015.096964087833	111.482843961254	316.539690649514	1111.740367237823	153.686657860832	335.289288462471	1220.731693176703	73.713187434575	304.005882156180	865.325217701329	1114.246910898647	251.022852617909	918.319230980017	856.506972247446	243.138542301103	1156.028789119822	1103.900075557201	808.664474777448	1360.921188915517	969.509801503383	722.237072603622	
